<svg width="30" height="39" viewBox="0 0 30 39" fill="none" xmlns="http://www.w3.org/2000/svg">
<path d="M19.9984 11.887V1.1887C19.9984 0.531942 19.4391 0 18.7484 0H16.2484C15.5578 0 14.9984 0.531942 14.9984 1.1887V12.1047C15.3906 11.9724 15.8062 11.887 16.2461 11.887H19.9984ZM29.9984 19.0184C29.9977 16.3929 27.7594 14.2644 24.9992 14.2644H16.2383C15.5523 14.2644 14.9961 14.7896 14.9961 15.4419V15.4835C14.9961 17.4352 16.6602 19.0192 18.7125 19.0192H21.4672C22.2234 19.0192 22.4984 19.2851 22.4984 19.6135V20.8171C22.4984 21.1358 22.218 21.3951 21.8828 21.4114C18.4047 21.5808 16.8703 23.2472 14.3789 26.8014L13.8859 27.505C13.8405 27.5699 13.782 27.6257 13.7138 27.6692C13.6456 27.7126 13.5691 27.7429 13.4887 27.7582C13.4082 27.7735 13.3254 27.7736 13.2449 27.7584C13.1644 27.7433 13.0878 27.7132 13.0195 27.6699L11.9797 27.0102C11.9114 26.9669 11.8527 26.9113 11.807 26.8465C11.7613 26.7817 11.7295 26.7089 11.7134 26.6324C11.6973 26.5559 11.6972 26.4771 11.7132 26.4006C11.7291 26.324 11.7607 26.2512 11.8062 26.1863L12.2992 25.4827C13.5281 23.7294 14.6586 22.2688 15.9953 21.1677C14.6461 20.7584 13.5422 19.8215 12.9586 18.6083C12.4437 18.8617 11.868 19.0184 11.25 19.0184H8.75C7.78594 19.0184 6.91484 18.6611 6.25 18.0912C5.58437 18.6618 4.71328 19.0192 3.75 19.0192H1.25C0.809375 19.0192 0.392969 18.9337 0 18.8V24.5897C0 27.112 1.05313 29.5302 2.92891 31.314L4.99922 33.2835V38.0383H24.9977V33.2865L27.8031 30.6179C29.21 29.2797 30.0002 27.4649 30 25.5726L29.9984 19.0184V19.0184ZM27.4977 12.3253V3.56609C27.4977 2.90934 26.9383 2.3774 26.2477 2.3774H23.7477C23.057 2.3774 22.4977 2.90934 22.4977 3.56609V11.887H24.9977C25.8789 11.887 26.7117 12.0586 27.4977 12.3253ZM1.25 16.6418H3.75C4.44063 16.6418 5 16.1098 5 15.4531V5.94349C5 5.28673 4.44063 4.75479 3.75 4.75479H1.25C0.559375 4.75479 0 5.28673 0 5.94349V15.4531C0 16.1098 0.559375 16.6418 1.25 16.6418ZM8.74922 16.6418H11.2492C11.9398 16.6418 12.4992 16.1098 12.4992 15.4531V3.56609C12.4992 2.90934 11.9398 2.3774 11.2492 2.3774H8.74922C8.05859 2.3774 7.49922 2.90934 7.49922 3.56609V15.4531C7.49922 16.1098 8.05859 16.6418 8.74922 16.6418V16.6418Z" fill="#5B6A00"/>
</svg>
